<?xml version="1.0" encoding="iso-8859-1"?>
<!-- Uploaded to: SVG Repo, www.svgrepo.com, Generator: SVG Repo Mixer Tools -->
<!DOCTYPE svg PUBLIC "-//W3C//DTD SVG 1.1//EN" "http://www.w3.org/Graphics/SVG/1.1/DTD/svg11.dtd">
<svg fill="#000000" height="800px" width="800px" version="1.1" id="Capa_1" xmlns="http://www.w3.org/2000/svg" xmlns:xlink="http://www.w3.org/1999/xlink" 
	 viewBox="0 0 207.464 207.464" xml:space="preserve">
<path d="M200.037,116.548l-0.489-0.454c-0.299-0.275-0.598-0.551-0.886-0.839l-46.604-46.591c-0.102-0.102-0.208-0.199-0.319-0.292
	c-2.315-1.945-5.018-3.347-7.898-4.138V52.82c0-2.762-2.239-5-5-5h-22.667c-2.761,0-5,2.238-5,5v10.666H14.774
	C6.627,63.486,0,70.114,0,78.26v88.515c0,2.762,2.239,5,5,5h13.06c2.278,9.934,11.183,17.369,21.799,17.369
	s19.521-7.435,21.799-17.369h85.696c2.278,9.934,11.183,17.369,21.798,17.369c10.626,0,19.539-7.45,21.806-17.399
	c9.153-0.318,16.506-7.843,16.506-17.072v-20.966C207.464,127.233,204.757,120.979,200.037,116.548z M121.175,57.82h12.667v5.666
	h-12.667V57.82z M39.858,179.144c-6.82,0-12.369-5.549-12.369-12.369s5.549-12.369,12.369-12.369s12.369,5.549,12.369,12.369
	S46.679,179.144,39.858,179.144z M65.58,107.433c0,2.762-2.239,5-5,5h-8.114v8.114c0,2.762-2.239,5-5,5H37.8c-2.761,0-5-2.238-5-5
	v-8.114h-8.114c-2.761,0-5-2.238-5-5v-9.666c0-2.762,2.239-5,5-5H32.8v-8.114c0-2.762,2.239-5,5-5h9.667c2.761,0,5,2.238,5,5v8.114
	h8.114c2.761,0,5,2.238,5,5V107.433z M126.51,112.297c-2.429,0-4.404-1.976-4.404-4.404V84.294c0-1.353,1.1-2.452,2.453-2.452
	h15.745c1.555,0,3.017,0.605,4.117,1.705l24.056,24.057c1.172,1.172,0.807,2.485,0.596,2.996c-0.211,0.51-0.882,1.697-2.541,1.697
	H126.51z M169.152,179.144c-6.82,0-12.369-5.549-12.369-12.369s5.548-12.369,12.369-12.369s12.369,5.549,12.369,12.369
	S175.972,179.144,169.152,179.144z M127.508,42.32c-2.761,0-5-2.238-5-5v-14c0-2.762,2.239-5,5-5s5,2.238,5,5v14
	C132.508,40.082,130.27,42.32,127.508,42.32z M151.783,46.57c-1.28,0-2.559-0.488-3.536-1.465c-1.953-1.952-1.953-5.118,0-7.07
	l8.821-8.821c1.952-1.953,5.118-1.953,7.071,0c1.953,1.952,1.953,5.118,0,7.07l-8.821,8.821
	C154.343,46.082,153.063,46.57,151.783,46.57z M105.585,46.57c-1.28,0-2.559-0.488-3.536-1.465l-8.821-8.821
	c-1.953-1.952-1.953-5.118,0-7.07c1.953-1.953,5.118-1.953,7.071,0l8.821,8.821c1.953,1.952,1.953,5.118,0,7.07
	C108.145,46.082,106.865,46.57,105.585,46.57z"/>
</svg>