<?xml version="1.0" encoding="utf-8"?>

<!DOCTYPE svg PUBLIC "-//W3C//DTD SVG 1.1//EN" "http://www.w3.org/Graphics/SVG/1.1/DTD/svg11.dtd">
<!-- Uploaded to: SVG Repo, www.svgrepo.com, Generator: SVG Repo Mixer Tools -->
<svg version="1.1" id="_x32_" xmlns="http://www.w3.org/2000/svg" xmlns:xlink="http://www.w3.org/1999/xlink" 
	 width="800px" height="800px" viewBox="0 0 512 512"  xml:space="preserve">
<style type="text/css">
<![CDATA[
	.st0{fill:#000000;}
]]>
</style>
<g>
	<path class="st0" d="M373.328,138.672V0H138.672v138.672H0V512h208V366.438h96V512h208V138.672H373.328z M131.469,414.188H91.406
		v-47.766h40.063V414.188z M131.469,308.188H91.406v-47.766h40.063V308.188z M276.031,308.188h-40.063v-47.766h40.063V308.188z
		 M318.656,150.813h-40.281v40.281h-44.75v-40.281h-40.281v-44.766h40.281V65.75h44.75v40.297h40.281V150.813z M380.453,260.422
		h37.563v47.766h-37.563V260.422z M420.594,414.188h-40.063v-47.766h40.063V414.188z"/>
</g>
</svg>